<svg xmlns="http://www.w3.org/2000/svg" width="1202" height="1202" viewBox="0 0 1202 1202" version="1.1"><path d="M 569 0.996 C 460.954 7.340, 358.784 41.131, 270 99.884 C 204.626 143.145, 147.987 199.227, 103.747 264.500 C 44.016 352.628, 9.389 453.266, 1.929 560.420 C 0.384 582.606, 1.251 641.301, 3.414 661 C 12.149 740.529, 32.709 809.516, 68.008 877.731 C 110.266 959.394, 173.457 1032.886, 247.960 1087.017 C 370.218 1175.844, 519.842 1215.143, 670.350 1197.958 C 912.936 1170.260, 1115.113 997.320, 1180.596 761.500 C 1195.128 709.168, 1201.987 657.782, 1201.996 601.187 C 1202 572.533, 1200.984 554.454, 1197.938 529 C 1179.737 376.903, 1103.788 237.470, 985.500 138.991 C 891.684 60.886, 775.953 13.242, 654 2.521 C 632.550 0.636, 588.579 -0.153, 569 0.996 M 564.536 10.045 C 471.279 16.492, 385.963 42.095, 307 87.331 C 218.332 138.128, 142.451 213.381, 90.038 302.500 C 79.938 319.672, 60.042 359.925, 52.966 377.500 C 9.124 486.396, -1.857 603.785, 21.068 718.500 C 31.148 768.940, 47.915 817.501, 71.651 865 C 104.217 930.170, 142.694 981.810, 197 1033.229 C 275.065 1107.146, 376.311 1159.639, 482 1180.994 C 526.847 1190.055, 551.223 1192.393, 601 1192.406 C 642.257 1192.416, 655.499 1191.578, 687.500 1186.930 C 824.081 1167.093, 949.981 1099.262, 1043.019 995.388 C 1165.915 858.178, 1217.365 672.120, 1182.911 489.500 C 1166.784 404.017, 1130.206 320.371, 1078.181 250 C 1015.160 164.757, 929.854 97.241, 833.221 56.122 C 777.155 32.266, 719.301 17.693, 656 11.480 C 636.534 9.570, 583.456 8.737, 564.536 10.045 M 198.286 493.396 C 173.446 501.484, 157.977 533.348, 168.333 555.094 C 170.986 560.663, 174.491 564.842, 175.589 563.744 C 175.906 563.427, 176.810 557.943, 177.597 551.557 C 179.229 538.316, 181.287 532.102, 186.300 525.272 C 197.793 509.615, 212.907 505.651, 237.119 511.944 C 243.348 513.563, 248.643 514.690, 248.885 514.448 C 249.735 513.598, 244.447 507.187, 239.500 503.070 C 236.750 500.781, 231.575 497.489, 228 495.754 C 222.332 493.003, 220.284 492.563, 212 492.311 C 205.910 492.127, 200.987 492.516, 198.286 493.396 M 614.059 495.517 C 604.407 497.668, 597.835 501.331, 591.657 508.004 C 585.224 514.952, 582 522.472, 582 530.527 C 582 537.362, 584.340 543.584, 590.478 553.072 C 596.319 562.099, 598.480 566.990, 599.423 573.312 C 600.290 579.123, 599.087 581, 594.496 581 C 591.475 581, 591.156 580.676, 590.120 576.561 C 589.058 572.344, 588.791 572.092, 584.751 571.493 C 582.413 571.147, 578.057 571.006, 575.071 571.182 L 569.642 571.500 566.694 580 C 565.072 584.675, 563.534 591.200, 563.275 594.500 C 562.874 599.626, 563.151 601.010, 565.176 604 C 568.325 608.650, 574.907 610.898, 585.540 610.956 C 604.253 611.058, 619.522 602.790, 625.802 589.155 C 627.998 584.388, 628.392 582.166, 628.315 575 C 628.200 564.394, 625.408 555.846, 617.590 542.157 C 614.515 536.775, 612 531.846, 612 531.205 C 612 529.221, 615.171 522, 616.042 522 C 616.496 522, 619.195 523.447, 622.041 525.216 C 630.888 530.716, 641.863 529.023, 645.377 521.618 C 649.200 513.561, 650.099 500.580, 647.091 496.861 C 645.290 494.634, 644.479 494.488, 632.841 494.291 C 625.021 494.158, 618.140 494.607, 614.059 495.517 M 669.729 496.359 C 658.478 500.193, 653.079 507.228, 652.222 519.170 C 651.470 529.645, 651.978 530.642, 658.490 531.455 C 661.520 531.834, 664 532.548, 664 533.042 C 664 533.536, 660.433 548.016, 656.073 565.220 C 651.713 582.424, 648 598.285, 647.823 600.467 C 647.501 604.419, 647.520 604.442, 653 606.686 C 659.503 609.349, 667.569 609.691, 670.783 607.439 C 674.053 605.149, 675.874 600.987, 678.113 590.688 C 680.793 578.362, 684.177 566.845, 684.907 567.567 C 685.233 567.890, 685.953 570.255, 686.506 572.823 L 687.512 577.492 691.506 577.157 C 714.147 575.257, 736.160 548.442, 733.502 526 C 731.046 505.263, 714.674 494.012, 687 494.041 C 678.677 494.049, 675.096 494.530, 669.729 496.359 M 763.231 494.724 C 761.284 494.966, 759.389 496.014, 758.547 497.315 C 756.862 499.921, 747.165 535.022, 743.847 550.533 C 742.095 558.721, 741.500 564.667, 741.500 574 C 741.500 585.273, 741.742 586.991, 743.968 591.500 C 749.968 603.655, 760.954 610.222, 775.500 610.351 C 788.304 610.464, 798.382 605.786, 803.857 597.187 C 816.010 578.101, 835.979 507.505, 831.235 500.400 C 830.103 498.705, 826.715 497.169, 821.563 496.014 C 817.591 495.124, 816.208 495.257, 812.538 496.880 C 806.031 499.759, 803.569 504.851, 798.337 526.264 C 788.670 565.825, 785.050 576.270, 780.394 578.040 C 774.431 580.307, 773.079 579.446, 770.657 571.834 C 769.699 568.822, 771.972 556.769, 776.660 540 C 784.906 510.510, 786.822 498.685, 783.750 496.257 C 782.350 495.151, 768.271 494.099, 763.231 494.724 M 967.810 494.619 C 966.016 495.155, 962.087 506.680, 951.488 542.500 C 943.464 569.617, 935.759 603.123, 937.220 604.546 C 938.772 606.057, 951.177 609, 955.993 609 C 963.071 609, 962.535 609.785, 966.640 593.402 C 968.065 587.718, 969.812 582.271, 970.525 581.297 C 971.762 579.605, 971.909 579.607, 973.824 581.341 C 974.927 582.339, 977.500 587.058, 979.541 591.828 C 984.704 603.890, 988.779 611.912, 991.756 615.875 C 994.193 619.118, 994.496 619.229, 999.502 618.712 C 1002.417 618.411, 1007.453 616.791, 1010.935 615.033 L 1017.157 611.892 1016.459 607.696 C 1015.256 600.465, 1012.237 593.754, 1003.988 579.979 C 999.594 572.643, 996 565.621, 996 564.375 C 996 562.646, 998.126 560.654, 1004.982 555.958 C 1017.964 547.066, 1028.274 535.296, 1035.370 521.267 C 1037.651 516.757, 1041 506.329, 1041 503.737 C 1041 502.435, 1028.449 496.870, 1024.247 496.309 C 1018.748 495.576, 1016.005 498.308, 1009.315 511.184 C 1001.272 526.664, 995.577 532.638, 986.145 535.489 C 983.855 536.182, 983.810 536.081, 984.518 531.851 C 984.918 529.458, 986.480 523.450, 987.989 518.500 C 991.585 506.705, 992.473 500.615, 990.788 499.312 C 986.614 496.086, 972.535 493.210, 967.810 494.619 M 1050.382 496.527 C 1047.793 499.116, 1047.734 499.443, 1048.310 507.846 C 1048.636 512.606, 1050.454 525.050, 1052.350 535.500 C 1058.292 568.245, 1058.199 572.040, 1051.174 583.772 C 1046.203 592.073, 1043.287 600.612, 1044.647 602.885 C 1046.086 605.290, 1055.909 610.003, 1059.429 609.978 C 1064.009 609.945, 1070.403 606.655, 1073.263 602.859 C 1076.973 597.936, 1116.525 518.340, 1118.401 512.021 C 1119.281 509.060, 1120 504.784, 1120 502.519 L 1120 498.400 1114.250 497.226 C 1111.088 496.579, 1105.981 495.761, 1102.902 495.406 L 1097.304 494.760 1093.644 500.611 C 1091.631 503.829, 1088.371 510.355, 1086.399 515.113 C 1083.822 521.330, 1082.126 524.077, 1080.373 524.876 C 1077.331 526.262, 1077.531 526.826, 1075.266 510.500 L 1073.462 497.500 1068.981 496.393 C 1066.517 495.784, 1061.923 494.965, 1058.774 494.574 C 1053.440 493.911, 1052.864 494.045, 1050.382 496.527 M 859.502 498.625 C 852.784 514.608, 833.502 591.643, 834.195 599.735 C 834.695 605.580, 838.290 607.500, 848.735 607.500 L 857.330 607.500 861.696 595.102 C 864.277 587.773, 867.049 577.143, 868.476 569.102 C 871.678 551.069, 872.125 549.041, 873.014 548.492 C 874.218 547.747, 875.737 555.272, 877.962 573 C 881.536 601.475, 884.711 607.062, 898.164 608.554 C 901.099 608.879, 905.297 608.756, 907.494 608.279 L 911.488 607.413 914.083 594.956 C 915.510 588.105, 919.650 572.345, 923.283 559.933 C 931.161 533.015, 934.110 519.292, 934.334 508.500 L 934.500 500.500 929.071 497.750 C 922.681 494.514, 918.676 494.290, 914.350 496.928 C 910.567 499.235, 908.353 504.649, 903.868 522.560 C 902.154 529.402, 900.409 535, 899.990 535 C 898.684 535, 896.248 528.853, 894.065 520.053 C 889.705 502.474, 883.210 496.029, 869.027 495.208 L 861.131 494.751 859.502 498.625 M 455.949 508.826 C 448.308 510.821, 440.311 515.650, 435.669 521.074 C 431.818 525.573, 429.426 529.759, 430.241 530.574 C 430.559 530.892, 433.897 529.802, 437.659 528.152 C 447.551 523.813, 453.057 522.676, 461.545 523.221 C 475.365 524.108, 491.182 534.531, 496.484 546.244 C 499.389 552.660, 501.295 565.171, 500.839 574.824 C 500.437 583.335, 501.295 583.810, 506.368 577.883 C 520.999 560.790, 512.382 525.377, 490.467 512.533 C 481.129 507.061, 468.077 505.659, 455.949 508.826 M 690.472 518.222 L 693.438 520.774 690.719 530.188 C 688.207 538.886, 687.231 546, 688.550 546 C 690.218 546, 695.104 542.665, 697.355 539.990 C 705.164 530.709, 702.215 517.643, 692.001 516.273 L 687.505 515.670 690.472 518.222 M 380.265 581.478 C 363.688 586.143, 352.789 597.193, 348.492 613.693 C 344.815 627.808, 348.751 643.706, 358.695 654.908 C 363.488 660.307, 365.434 660.112, 372.795 653.495 C 380.342 646.709, 387.444 643.838, 398.198 643.224 C 406.707 642.739, 407.611 642.895, 417.071 646.477 C 428.471 650.795, 428.542 650.777, 432.749 642.563 C 435.835 636.536, 436.900 624.425, 435.087 615.972 C 432.194 602.480, 422.514 589.840, 410.574 583.962 C 404.885 581.161, 402.735 580.672, 394.745 580.363 C 388.622 580.126, 383.732 580.502, 380.265 581.478 M 273 590.875 C 244.864 599.916, 233.687 637.474, 252.357 660.239 C 259.427 668.860, 259.738 668.916, 267.131 662.916 C 274.871 656.633, 281.403 653.507, 289.983 651.981 C 298.520 650.462, 304.702 651.343, 314.957 655.541 C 319.605 657.444, 323.699 659, 324.055 659 C 324.412 659, 326.210 655.737, 328.051 651.750 C 330.840 645.709, 331.470 643.027, 331.826 635.668 C 332.753 616.486, 324.515 601.897, 308 593.474 C 298.804 588.783, 283.131 587.619, 273 590.875 M 389.922 598.274 C 388.066 599.524, 385.485 602.112, 384.186 604.024 C 382.179 606.978, 381.883 608.443, 382.212 613.783 C 382.560 619.441, 382.962 620.429, 386.249 623.715 C 389.460 626.927, 390.595 627.410, 395.699 627.737 C 402.698 628.187, 407.377 626.121, 410.730 621.102 C 415.157 614.476, 412.417 602.055, 405.613 597.906 C 401.223 595.229, 394.196 595.393, 389.922 598.274 M 287.358 608.923 C 282.469 610.137, 277.338 613.744, 276.211 616.759 C 274.169 622.227, 274.114 623.003, 275.415 628.019 C 277.012 634.175, 281.040 638.664, 286.217 640.058 C 300.838 643.996, 312.020 628.427, 304.019 615.272 C 300.625 609.690, 294.174 607.232, 287.358 608.923 M 614.146 635.515 C 603.403 638.291, 598.265 641.013, 592.205 647.143 C 585.931 653.486, 582.749 660.599, 582.753 668.266 C 582.757 675.352, 584.254 679.519, 590.147 688.851 C 596.252 698.516, 599.998 707.035, 599.999 711.250 C 600 715.573, 597.230 719, 593.735 719 C 591.928 719, 591.119 718.014, 589.740 714.130 L 588.010 709.259 582.043 708.584 C 573.670 707.637, 570.783 709.292, 568.047 716.604 C 565.451 723.542, 564.160 732.463, 564.924 738.186 C 565.756 744.417, 569.975 746.322, 584.068 746.829 C 612.122 747.838, 628.318 734.764, 628.452 711 C 628.504 701.809, 628.726 702.420, 617.682 681.303 C 613.901 674.074, 612.089 665.691, 613.775 663.228 C 614.457 662.231, 616.145 662.524, 621.573 664.582 C 634.154 669.350, 640.931 667.956, 645.145 659.735 C 648.147 653.880, 648.927 642.064, 646.552 638.439 C 642.641 632.471, 630.255 631.353, 614.146 635.515 M 673.500 634.699 C 666.758 635.595, 661.052 638.200, 657.697 641.913 C 654.232 645.749, 652.746 650.227, 651.569 660.377 L 651.003 665.254 656.002 664.774 C 658.751 664.510, 661 664.391, 661 664.510 C 661 664.629, 658.252 675.475, 654.894 688.613 C 647.429 717.814, 646.484 727.019, 650.235 734 C 657.451 747.433, 674.021 750.473, 692.320 741.722 C 725.447 725.879, 743.501 686.093, 730.268 658.095 C 726.883 650.935, 718.555 642.601, 711.603 639.419 C 701.728 634.898, 686.340 632.991, 673.500 634.699 M 756.500 635.672 C 755.400 635.966, 753.668 636.945, 752.651 637.848 C 750.045 640.161, 750.792 644.132, 756.868 660.246 C 765.425 682.941, 766.585 689.913, 763.086 697.619 C 762.057 699.884, 757.518 707.256, 753 714 C 743.408 728.317, 741.052 733.097, 741.022 738.299 C 741.002 741.806, 741.326 742.246, 745.250 744.027 C 747.932 745.244, 751.752 745.964, 755.602 745.978 C 764.101 746.009, 767.389 743.631, 772.500 733.762 C 777.545 724.021, 778.660 722.856, 780.524 725.382 C 781.288 726.416, 782.409 729.651, 783.015 732.571 C 785.055 742.400, 790.085 746, 801.777 746 C 810.799 746, 812.383 744.825, 812.233 738.241 C 812.123 733.428, 809.452 725.442, 802.453 709 C 799.465 701.981, 798.379 695.122, 799.397 689.698 C 799.749 687.820, 803.648 680.707, 808.061 673.892 C 827.577 643.748, 827.800 636.294, 809.213 635.218 L 801.340 634.763 795.024 645.131 C 788.445 655.933, 786.212 659, 784.927 659 C 784.507 659, 783.203 654.781, 782.028 649.624 C 779.133 636.915, 777.681 635.563, 766.670 635.319 C 762.177 635.220, 757.600 635.379, 756.500 635.672 M 335.223 661.557 C 332.556 663.424, 332.229 668.454, 334.557 671.777 C 336.560 674.637, 342.904 674.869, 345.345 672.171 C 347.582 669.700, 347.483 663.747, 345.171 661.655 C 342.869 659.571, 338.124 659.524, 335.223 661.557 M 679.371 661.309 C 687.373 666.405, 687.498 666.539, 687.816 670.380 C 687.991 672.496, 686.938 678.276, 685.453 683.348 C 681.509 696.823, 679.288 705.896, 678.626 711.250 C 678.079 715.675, 678.191 715.999, 680.269 715.990 C 684.325 715.972, 692.553 711.340, 696.298 706.965 C 703.054 699.072, 706.676 683.826, 704.073 674.237 C 701.641 665.278, 693.316 659.914, 682.068 660.059 C 678.143 660.109, 677.763 660.285, 679.371 661.309" stroke="none" fill="#fa4b5c" fill-rule="evenodd"/><path d="M 354.823 453.368 C 340.130 458.959, 330.668 466.349, 316.241 483.500 L 312.036 488.499 308.921 484.721 C 302.517 476.952, 291.042 474.368, 282.455 478.762 C 276.597 481.759, 270.572 488.762, 268.510 494.971 C 266.289 501.658, 266.863 507.951, 270.928 521.454 C 272.576 526.929, 273.829 531.464, 273.712 531.533 C 266.017 536.027, 258.612 540, 257.931 540 C 257.440 540, 256.853 538.987, 256.627 537.750 C 256.401 536.513, 255.744 532.924, 255.166 529.776 C 254.589 526.628, 253.256 522.106, 252.204 519.729 L 250.292 515.406 239.896 512.546 C 225.543 508.597, 212.632 508.010, 204.826 510.950 C 194.290 514.918, 184.244 525.229, 180.520 535.896 C 179.676 538.314, 178.351 545.439, 177.576 551.730 C 176.800 558.021, 175.923 563.411, 175.626 563.708 C 175.329 564.005, 175.962 565.966, 177.034 568.066 C 180.462 574.787, 189.107 579.908, 201.258 582.418 C 205.470 583.288, 210.060 584, 211.458 584 C 212.915 584, 214 584.572, 214 585.339 C 214 586.075, 211.780 591.217, 209.067 596.766 C 199.128 617.088, 195.580 633.002, 195.638 657 C 195.710 687.138, 202.018 707.351, 219.358 733 C 227.876 745.599, 245.158 763.282, 256 770.491 C 270.588 780.191, 287.829 787.151, 306 790.677 C 319.155 793.229, 344.652 792.984, 357.688 790.179 C 401.733 780.704, 436.584 753.743, 455.514 714.500 C 465.173 694.476, 469 678.152, 469 656.979 C 469 641.732, 467.440 632.777, 461.455 613.665 C 459.015 605.874, 457.014 599.205, 457.009 598.845 C 457.004 598.484, 459.587 598.424, 462.750 598.711 C 476.660 599.972, 491.678 595.067, 497.574 587.337 C 500.526 583.466, 500.744 582.613, 500.900 574.347 C 501.104 563.558, 498.988 550.857, 496.017 545.032 C 492.811 538.749, 484.672 531.441, 476.234 527.271 C 466.725 522.572, 455.956 521.687, 446.500 524.828 C 432.014 529.641, 428.636 531.524, 426.242 536.120 C 425 538.505, 423.460 542.992, 422.820 546.093 L 421.656 551.730 414.440 546.615 C 410.471 543.802, 406.386 540.944, 405.362 540.265 C 403.649 539.130, 404.022 538.568, 410 533.270 C 421.534 523.049, 426.243 517.635, 429.372 511 C 431.936 505.563, 432.440 503.273, 432.450 497 C 432.460 490.789, 432.001 488.620, 429.780 484.380 C 426.821 478.731, 422.341 474.468, 417.021 472.239 C 414.419 471.149, 411.578 470.953, 405.750 471.461 C 393.973 472.489, 392.039 471.527, 386.277 461.782 C 383.565 457.195, 380.203 452.903, 378.500 451.855 C 373.682 448.888, 365.165 449.433, 354.823 453.368 M 614.075 480.087 C 594.730 483.883, 576.590 495.963, 569.935 509.481 C 563.946 521.646, 564.398 532.205, 571.594 548.196 C 578.796 564.204, 579.018 562.454, 569.743 562.795 C 565.319 562.957, 560.486 563.732, 558.954 564.524 C 551.321 568.471, 545.679 581.994, 545.614 596.500 C 545.571 606.098, 547.086 610.983, 551.683 616.071 C 556.967 621.920, 562.790 623.516, 578.500 623.423 C 589.755 623.355, 592.574 622.989, 599.500 620.695 C 618.188 614.504, 628.978 603.210, 633.598 585 C 636.426 573.854, 635.223 566.107, 628.526 552.335 C 625.435 545.978, 622.631 539.406, 622.296 537.728 L 621.686 534.679 629.721 535.299 C 634.140 535.640, 639.634 536.670, 641.929 537.588 C 646.866 539.564, 647.041 537.139, 640.027 564 C 633.151 590.334, 631.879 596.567, 631.722 604.692 C 631.610 610.554, 631.946 612.283, 633.542 614.048 C 636.475 617.291, 642.069 619.813, 649.421 621.208 C 653.039 621.894, 656 622.803, 656 623.228 C 656 624.316, 655.653 624.263, 644.502 621.488 C 601.798 610.860, 560.522 637.209, 566.015 671.592 C 567.302 679.653, 569.142 684.699, 574.001 693.502 C 576.201 697.486, 578 701.028, 578 701.373 C 578 701.718, 574.611 702, 570.468 702 C 555.716 702, 551.476 706.294, 547.444 725.315 C 546.650 729.064, 546.007 735.814, 546.016 740.315 C 546.036 750.177, 548.368 755.241, 554.466 758.661 C 564.524 764.303, 586.798 764.404, 603.435 758.884 C 612.511 755.873, 619.073 751.064, 625.019 743.069 C 627.910 739.181, 630.551 736.013, 630.887 736.028 C 631.224 736.043, 633.975 739.469, 637 743.640 C 652.901 765.564, 667.835 769.199, 691.934 757.011 C 717.957 743.849, 737.079 721.677, 743.687 697 C 746.461 686.642, 745.987 668.712, 742.669 658.500 C 737.955 643.991, 729.466 633.914, 716.684 627.656 C 706.328 622.585, 699.206 620.964, 684.405 620.308 L 671.310 619.728 674.614 614.241 C 676.578 610.980, 678.579 605.658, 679.545 601.126 C 680.440 596.932, 681.373 592.761, 681.619 591.858 C 682.164 589.859, 684.969 588.704, 695.913 585.973 C 706.666 583.290, 710.752 581.164, 718.061 574.444 C 721.318 571.450, 724.099 569, 724.241 569 C 724.384 569, 724.500 573.612, 724.500 579.250 C 724.500 588.311, 724.815 590.172, 727.216 595.296 C 731.114 603.617, 739.124 611.289, 752.640 619.651 C 754.435 620.762, 754.430 620.825, 752.500 621.465 C 738.503 626.103, 737.568 634.808, 747.983 663.500 C 751.486 673.149, 754.395 682.955, 754.710 686.176 C 755.217 691.369, 754.948 692.429, 751.547 698.615 C 749.503 702.335, 744.673 710.288, 740.813 716.290 C 731.542 730.708, 728.682 737.105, 728.199 744.500 C 727.870 749.528, 728.161 750.950, 729.998 753.278 C 739.053 764.758, 770.895 763.896, 776.147 752.029 L 777.471 749.039 781.985 753.473 C 788.272 759.648, 792.091 761.001, 803.218 760.994 C 814.290 760.988, 819.045 759.825, 823.207 756.106 C 825.789 753.800, 826.384 752.420, 826.761 747.866 C 827.237 742.132, 826.273 738.836, 817.448 716.007 C 815.429 710.785, 813.313 703.707, 812.745 700.278 C 811.427 692.329, 812.445 689.546, 822.536 673.500 C 830.945 660.127, 838.480 645.227, 839.382 640.188 C 841.224 629.898, 828.002 620.800, 811 620.656 C 801.879 620.580, 798.174 622.276, 793.747 628.557 C 792.024 631.001, 790.322 633, 789.964 633 C 789.606 633, 787.413 630.747, 785.092 627.994 C 782.311 624.697, 781.319 622.857, 782.185 622.605 C 788.118 620.883, 796.298 617.370, 800.197 614.870 C 809.960 608.612, 814.683 601.270, 819.957 584.155 C 821.710 578.466, 823.383 574.050, 823.675 574.341 C 823.966 574.633, 822.988 579.962, 821.500 586.184 C 818.354 599.340, 818.404 607.372, 821.657 611.763 C 826.585 618.416, 835.702 621.486, 848.598 620.835 C 859.733 620.273, 863.015 617.064, 867.343 602.508 L 869.642 594.776 871.479 601.559 C 873.765 610.005, 877.833 614.754, 885.870 618.361 C 894.022 622.020, 902.324 622.750, 910.522 620.531 C 919.226 618.175, 921.607 615.344, 922.512 606.270 C 923.191 599.476, 930.117 573.852, 930.757 575.771 C 930.945 576.334, 929.930 581.228, 928.503 586.647 C 927.075 592.066, 925.640 599.506, 925.314 603.179 C 924.727 609.795, 924.754 609.888, 928.111 612.975 C 937.686 621.781, 954.028 625.577, 962.893 621.055 C 967.299 618.807, 973 611.264, 973 607.682 C 973 604.384, 975.355 607.312, 980.508 617.014 C 986.009 627.374, 991.822 633.369, 997.374 634.410 C 1002.565 635.384, 1010.422 632.901, 1017.855 627.938 C 1025.907 622.561, 1028.294 619.085, 1028.808 611.984 C 1029.319 604.912, 1026.947 598.720, 1017.210 581.715 C 1013.363 574.997, 1009.937 568.567, 1009.597 567.426 C 1009.095 565.748, 1009.906 564.750, 1013.846 562.197 C 1019.780 558.351, 1036.942 540.669, 1039.135 536.140 L 1040.725 532.857 1042.249 536.678 C 1043.087 538.780, 1044.928 546.125, 1046.340 553 C 1049.457 568.177, 1049.286 569.246, 1041.072 585.936 C 1034.065 600.173, 1032.960 605.211, 1035.644 610.692 C 1040.264 620.128, 1062.154 625.492, 1073.543 619.979 C 1079.880 616.911, 1082.431 613.058, 1095.043 587.500 C 1101.014 575.400, 1111.516 554.521, 1118.380 541.102 C 1131.981 514.513, 1136.643 502.437, 1135.682 496.283 C 1134.397 488.054, 1120.174 480.542, 1105.823 480.513 C 1097.963 480.498, 1095.610 481.860, 1089.524 489.947 C 1085.972 494.666, 1085.438 495.032, 1084.524 493.378 C 1082.293 489.341, 1076.247 484.159, 1072.477 483.050 C 1064.951 480.837, 1052.826 480.565, 1047.062 482.479 C 1041.824 484.219, 1038.131 484.211, 1024.314 482.427 C 1016.067 481.363, 1013.114 483.784, 1006.717 496.854 L 1001.507 507.500 1000.947 499.500 C 1000.639 495.100, 1000.019 490.692, 999.569 489.704 C 997.682 485.561, 981.993 480, 972.191 480 C 965.422 480, 960.578 482.260, 957.416 486.893 C 954.685 490.895, 949.584 505.928, 944.491 524.987 C 942.652 531.869, 940.692 538.625, 940.137 540 C 938.130 544.968, 939.050 539.165, 941.895 528.923 C 947.186 509.870, 948.212 501.345, 945.939 495.315 C 943.265 488.224, 934.049 482.728, 922.566 481.379 C 911.417 480.069, 905.350 483.354, 902.437 492.280 C 899.374 501.666, 899.233 501.759, 895.938 496.563 C 892.468 491.091, 883.055 484.653, 875.176 482.363 C 867.834 480.228, 857.035 480.837, 853.344 483.593 C 849.490 486.470, 847.333 489.631, 844.546 496.488 C 842.086 502.541, 841.652 502.487, 840.575 496 C 839.094 487.076, 833.428 483.114, 820.920 482.257 C 806.869 481.294, 800.616 484.548, 794.511 496 L 791.045 502.500 791.023 496.797 C 790.991 488.861, 789.603 486.442, 783.318 483.367 C 777.045 480.298, 763.243 479.024, 756.401 480.882 C 747.119 483.403, 743.380 488.050, 740.190 501.026 L 738.361 508.468 733.436 501.984 C 730.727 498.418, 726.854 493.862, 724.828 491.859 C 714.008 481.163, 691.859 477.311, 668.728 482.105 C 657.225 484.488, 651.501 484.284, 640.068 481.082 C 632.262 478.895, 622.126 478.508, 614.075 480.087 M 614.059 495.517 C 604.407 497.668, 597.835 501.331, 591.657 508.004 C 585.224 514.952, 582 522.472, 582 530.527 C 582 537.362, 584.340 543.584, 590.478 553.072 C 596.319 562.099, 598.480 566.990, 599.423 573.312 C 600.290 579.123, 599.087 581, 594.496 581 C 591.475 581, 591.156 580.676, 590.120 576.561 C 589.058 572.344, 588.791 572.092, 584.751 571.493 C 582.413 571.147, 578.057 571.006, 575.071 571.182 L 569.642 571.500 566.694 580 C 565.072 584.675, 563.534 591.200, 563.275 594.500 C 562.874 599.626, 563.151 601.010, 565.176 604 C 568.325 608.650, 574.907 610.898, 585.540 610.956 C 604.253 611.058, 619.522 602.790, 625.802 589.155 C 627.998 584.388, 628.392 582.166, 628.315 575 C 628.200 564.394, 625.408 555.846, 617.590 542.157 C 614.515 536.775, 612 531.846, 612 531.205 C 612 529.221, 615.171 522, 616.042 522 C 616.496 522, 619.195 523.447, 622.041 525.216 C 630.888 530.716, 641.863 529.023, 645.377 521.618 C 649.200 513.561, 650.099 500.580, 647.091 496.861 C 645.290 494.634, 644.479 494.488, 632.841 494.291 C 625.021 494.158, 618.140 494.607, 614.059 495.517 M 669.729 496.359 C 658.478 500.193, 653.079 507.228, 652.222 519.170 C 651.470 529.645, 651.978 530.642, 658.490 531.455 C 661.520 531.834, 664 532.548, 664 533.042 C 664 533.536, 660.433 548.016, 656.073 565.220 C 651.713 582.424, 648 598.285, 647.823 600.467 C 647.501 604.419, 647.520 604.442, 653 606.686 C 659.503 609.349, 667.569 609.691, 670.783 607.439 C 674.053 605.149, 675.874 600.987, 678.113 590.688 C 680.793 578.362, 684.177 566.845, 684.907 567.567 C 685.233 567.890, 685.953 570.255, 686.506 572.823 L 687.512 577.492 691.506 577.157 C 714.147 575.257, 736.160 548.442, 733.502 526 C 731.046 505.263, 714.674 494.012, 687 494.041 C 678.677 494.049, 675.096 494.530, 669.729 496.359 M 763.231 494.724 C 761.284 494.966, 759.389 496.014, 758.547 497.315 C 756.862 499.921, 747.165 535.022, 743.847 550.533 C 742.095 558.721, 741.500 564.667, 741.500 574 C 741.500 585.273, 741.742 586.991, 743.968 591.500 C 749.968 603.655, 760.954 610.222, 775.500 610.351 C 788.304 610.464, 798.382 605.786, 803.857 597.187 C 816.010 578.101, 835.979 507.505, 831.235 500.400 C 830.103 498.705, 826.715 497.169, 821.563 496.014 C 817.591 495.124, 816.208 495.257, 812.538 496.880 C 806.031 499.759, 803.569 504.851, 798.337 526.264 C 788.670 565.825, 785.050 576.270, 780.394 578.040 C 774.431 580.307, 773.079 579.446, 770.657 571.834 C 769.699 568.822, 771.972 556.769, 776.660 540 C 784.906 510.510, 786.822 498.685, 783.750 496.257 C 782.350 495.151, 768.271 494.099, 763.231 494.724 M 967.810 494.619 C 966.016 495.155, 962.087 506.680, 951.488 542.500 C 943.464 569.617, 935.759 603.123, 937.220 604.546 C 938.772 606.057, 951.177 609, 955.993 609 C 963.071 609, 962.535 609.785, 966.640 593.402 C 968.065 587.718, 969.812 582.271, 970.525 581.297 C 971.762 579.605, 971.909 579.607, 973.824 581.341 C 974.927 582.339, 977.500 587.058, 979.541 591.828 C 984.704 603.890, 988.779 611.912, 991.756 615.875 C 994.193 619.118, 994.496 619.229, 999.502 618.712 C 1002.417 618.411, 1007.453 616.791, 1010.935 615.033 L 1017.157 611.892 1016.459 607.696 C 1015.256 600.465, 1012.237 593.754, 1003.988 579.979 C 999.594 572.643, 996 565.621, 996 564.375 C 996 562.646, 998.126 560.654, 1004.982 555.958 C 1017.964 547.066, 1028.274 535.296, 1035.370 521.267 C 1037.651 516.757, 1041 506.329, 1041 503.737 C 1041 502.435, 1028.449 496.870, 1024.247 496.309 C 1018.748 495.576, 1016.005 498.308, 1009.315 511.184 C 1001.272 526.664, 995.577 532.638, 986.145 535.489 C 983.855 536.182, 983.810 536.081, 984.518 531.851 C 984.918 529.458, 986.480 523.450, 987.989 518.500 C 991.585 506.705, 992.473 500.615, 990.788 499.312 C 986.614 496.086, 972.535 493.210, 967.810 494.619 M 1050.382 496.527 C 1047.793 499.116, 1047.734 499.443, 1048.310 507.846 C 1048.636 512.606, 1050.454 525.050, 1052.350 535.500 C 1058.292 568.245, 1058.199 572.040, 1051.174 583.772 C 1046.203 592.073, 1043.287 600.612, 1044.647 602.885 C 1046.086 605.290, 1055.909 610.003, 1059.429 609.978 C 1064.009 609.945, 1070.403 606.655, 1073.263 602.859 C 1076.973 597.936, 1116.525 518.340, 1118.401 512.021 C 1119.281 509.060, 1120 504.784, 1120 502.519 L 1120 498.400 1114.250 497.226 C 1111.088 496.579, 1105.981 495.761, 1102.902 495.406 L 1097.304 494.760 1093.644 500.611 C 1091.631 503.829, 1088.371 510.355, 1086.399 515.113 C 1083.822 521.330, 1082.126 524.077, 1080.373 524.876 C 1077.331 526.262, 1077.531 526.826, 1075.266 510.500 L 1073.462 497.500 1068.981 496.393 C 1066.517 495.784, 1061.923 494.965, 1058.774 494.574 C 1053.440 493.911, 1052.864 494.045, 1050.382 496.527 M 859.502 498.625 C 852.784 514.608, 833.502 591.643, 834.195 599.735 C 834.695 605.580, 838.290 607.500, 848.735 607.500 L 857.330 607.500 861.696 595.102 C 864.277 587.773, 867.049 577.143, 868.476 569.102 C 871.678 551.069, 872.125 549.041, 873.014 548.492 C 874.218 547.747, 875.737 555.272, 877.962 573 C 881.536 601.475, 884.711 607.062, 898.164 608.554 C 901.099 608.879, 905.297 608.756, 907.494 608.279 L 911.488 607.413 914.083 594.956 C 915.510 588.105, 919.650 572.345, 923.283 559.933 C 931.161 533.015, 934.110 519.292, 934.334 508.500 L 934.500 500.500 929.071 497.750 C 922.681 494.514, 918.676 494.290, 914.350 496.928 C 910.567 499.235, 908.353 504.649, 903.868 522.560 C 902.154 529.402, 900.409 535, 899.990 535 C 898.684 535, 896.248 528.853, 894.065 520.053 C 889.705 502.474, 883.210 496.029, 869.027 495.208 L 861.131 494.751 859.502 498.625 M 690.472 518.222 L 693.438 520.774 690.719 530.188 C 688.207 538.886, 687.231 546, 688.550 546 C 690.218 546, 695.104 542.665, 697.355 539.990 C 705.164 530.709, 702.215 517.643, 692.001 516.273 L 687.505 515.670 690.472 518.222 M 380.265 581.478 C 363.688 586.143, 352.789 597.193, 348.492 613.693 C 344.815 627.808, 348.751 643.706, 358.695 654.908 C 363.488 660.307, 365.434 660.112, 372.795 653.495 C 380.342 646.709, 387.444 643.838, 398.198 643.224 C 406.707 642.739, 407.611 642.895, 417.071 646.477 C 428.471 650.795, 428.542 650.777, 432.749 642.563 C 435.835 636.536, 436.900 624.425, 435.087 615.972 C 432.194 602.480, 422.514 589.840, 410.574 583.962 C 404.885 581.161, 402.735 580.672, 394.745 580.363 C 388.622 580.126, 383.732 580.502, 380.265 581.478 M 273 590.875 C 244.864 599.916, 233.687 637.474, 252.357 660.239 C 259.427 668.860, 259.738 668.916, 267.131 662.916 C 274.871 656.633, 281.403 653.507, 289.983 651.981 C 298.520 650.462, 304.702 651.343, 314.957 655.541 C 319.605 657.444, 323.699 659, 324.055 659 C 324.412 659, 326.210 655.737, 328.051 651.750 C 330.840 645.709, 331.470 643.027, 331.826 635.668 C 332.753 616.486, 324.515 601.897, 308 593.474 C 298.804 588.783, 283.131 587.619, 273 590.875 M 389.922 598.274 C 388.066 599.524, 385.485 602.112, 384.186 604.024 C 382.179 606.978, 381.883 608.443, 382.212 613.783 C 382.560 619.441, 382.962 620.429, 386.249 623.715 C 389.460 626.927, 390.595 627.410, 395.699 627.737 C 402.698 628.187, 407.377 626.121, 410.730 621.102 C 415.157 614.476, 412.417 602.055, 405.613 597.906 C 401.223 595.229, 394.196 595.393, 389.922 598.274 M 287.358 608.923 C 282.469 610.137, 277.338 613.744, 276.211 616.759 C 274.169 622.227, 274.114 623.003, 275.415 628.019 C 277.012 634.175, 281.040 638.664, 286.217 640.058 C 300.838 643.996, 312.020 628.427, 304.019 615.272 C 300.625 609.690, 294.174 607.232, 287.358 608.923 M 614.146 635.515 C 603.403 638.291, 598.265 641.013, 592.205 647.143 C 585.931 653.486, 582.749 660.599, 582.753 668.266 C 582.757 675.352, 584.254 679.519, 590.147 688.851 C 596.252 698.516, 599.998 707.035, 599.999 711.250 C 600 715.573, 597.230 719, 593.735 719 C 591.928 719, 591.119 718.014, 589.740 714.130 L 588.010 709.259 582.043 708.584 C 573.670 707.637, 570.783 709.292, 568.047 716.604 C 565.451 723.542, 564.160 732.463, 564.924 738.186 C 565.756 744.417, 569.975 746.322, 584.068 746.829 C 612.122 747.838, 628.318 734.764, 628.452 711 C 628.504 701.809, 628.726 702.420, 617.682 681.303 C 613.901 674.074, 612.089 665.691, 613.775 663.228 C 614.457 662.231, 616.145 662.524, 621.573 664.582 C 634.154 669.350, 640.931 667.956, 645.145 659.735 C 648.147 653.880, 648.927 642.064, 646.552 638.439 C 642.641 632.471, 630.255 631.353, 614.146 635.515 M 673.500 634.699 C 666.758 635.595, 661.052 638.200, 657.697 641.913 C 654.232 645.749, 652.746 650.227, 651.569 660.377 L 651.003 665.254 656.002 664.774 C 658.751 664.510, 661 664.391, 661 664.510 C 661 664.629, 658.252 675.475, 654.894 688.613 C 647.429 717.814, 646.484 727.019, 650.235 734 C 657.451 747.433, 674.021 750.473, 692.320 741.722 C 725.447 725.879, 743.501 686.093, 730.268 658.095 C 726.883 650.935, 718.555 642.601, 711.603 639.419 C 701.728 634.898, 686.340 632.991, 673.500 634.699 M 756.500 635.672 C 755.400 635.966, 753.668 636.945, 752.651 637.848 C 750.045 640.161, 750.792 644.132, 756.868 660.246 C 765.425 682.941, 766.585 689.913, 763.086 697.619 C 762.057 699.884, 757.518 707.256, 753 714 C 743.408 728.317, 741.052 733.097, 741.022 738.299 C 741.002 741.806, 741.326 742.246, 745.250 744.027 C 747.932 745.244, 751.752 745.964, 755.602 745.978 C 764.101 746.009, 767.389 743.631, 772.500 733.762 C 777.545 724.021, 778.660 722.856, 780.524 725.382 C 781.288 726.416, 782.409 729.651, 783.015 732.571 C 785.055 742.400, 790.085 746, 801.777 746 C 810.799 746, 812.383 744.825, 812.233 738.241 C 812.123 733.428, 809.452 725.442, 802.453 709 C 799.465 701.981, 798.379 695.122, 799.397 689.698 C 799.749 687.820, 803.648 680.707, 808.061 673.892 C 827.577 643.748, 827.800 636.294, 809.213 635.218 L 801.340 634.763 795.024 645.131 C 788.445 655.933, 786.212 659, 784.927 659 C 784.507 659, 783.203 654.781, 782.028 649.624 C 779.133 636.915, 777.681 635.563, 766.670 635.319 C 762.177 635.220, 757.600 635.379, 756.500 635.672 M 335.223 661.557 C 332.556 663.424, 332.229 668.454, 334.557 671.777 C 336.560 674.637, 342.904 674.869, 345.345 672.171 C 347.582 669.700, 347.483 663.747, 345.171 661.655 C 342.869 659.571, 338.124 659.524, 335.223 661.557 M 679.371 661.309 C 687.373 666.405, 687.498 666.539, 687.816 670.380 C 687.991 672.496, 686.938 678.276, 685.453 683.348 C 681.509 696.823, 679.288 705.896, 678.626 711.250 C 678.079 715.675, 678.191 715.999, 680.269 715.990 C 684.325 715.972, 692.553 711.340, 696.298 706.965 C 703.054 699.072, 706.676 683.826, 704.073 674.237 C 701.641 665.278, 693.316 659.914, 682.068 660.059 C 678.143 660.109, 677.763 660.285, 679.371 661.309" stroke="none" fill="#3d2473" fill-rule="evenodd"/></svg>