<svg width="119" height="118" viewBox="0 0 119 118" fill="none" xmlns="http://www.w3.org/2000/svg">
<g id="Group 18">
<path id="Ellipse 7" d="M15.5186 46.0822C23.941 46.0822 30.7687 39.2545 30.7687 30.8321C30.7687 22.4097 23.941 15.582 15.5186 15.582C7.09624 15.582 0.268555 22.4097 0.268555 30.8321C0.268555 39.2545 7.09624 46.0822 15.5186 46.0822Z" fill="#3E3F66"/>
<path id="Ellipse 8" d="M103.006 51.1652C111.429 51.1652 118.256 44.3375 118.256 35.9151C118.256 27.4927 111.429 20.665 103.006 20.665C94.5838 20.665 87.7561 27.4927 87.7561 35.9151C87.7561 44.3375 94.5838 51.1652 103.006 51.1652Z" fill="#3E3F66"/>
<path id="Path 17" d="M103.271 20.1309C100.342 20.1309 97.4749 20.9746 95.0125 22.5611C92.5501 24.1475 90.5966 26.4096 89.3857 29.0768C91.9963 26.7511 95.3269 25.3933 98.8193 25.2307C102.312 25.0682 105.754 26.1108 108.569 28.1838C111.385 30.2569 113.402 33.2345 114.284 36.6178C115.165 40.0012 114.857 43.5846 113.411 46.7679C115.72 44.7126 117.35 42.0039 118.085 39.001C118.819 35.9982 118.623 32.843 117.524 29.9539C116.424 27.0648 114.472 24.5782 111.927 22.8239C109.381 21.0696 106.363 20.1304 103.271 20.1309Z" fill="#F20BB3"/>
<path id="Path 18" d="M15.2499 15.0479C18.1791 15.0479 21.0463 15.8916 23.5088 17.4781C25.9712 19.0645 27.9246 21.3265 29.1355 23.9938C26.5249 21.6681 23.1944 20.3103 19.7019 20.1477C16.2094 19.9852 12.7672 21.0278 9.95181 23.1008C7.13647 25.1739 5.11907 28.1515 4.23759 31.5348C3.35611 34.9181 3.6641 38.5016 5.10997 41.6849C2.80085 39.6296 1.17101 36.9209 0.436568 33.918C-0.297872 30.9152 -0.102218 27.76 0.997581 24.8709C2.09738 21.9818 4.04937 19.4952 6.59472 17.7409C9.14008 15.9866 12.1586 15.0474 15.2499 15.0479Z" fill="#F20BB3"/>
<path id="Ellipse 9" d="M56.7193 117.25C82.4297 117.25 103.272 96.4078 103.272 70.6974C103.272 44.9869 82.4297 24.1445 56.7193 24.1445C31.0089 24.1445 10.1665 44.9869 10.1665 70.6974C10.1665 96.4078 31.0089 117.25 56.7193 117.25Z" fill="#3E3F66"/>
<path id="Path 19" d="M68.0332 72.2887C70.4443 69.0519 74.0402 66.9029 78.0329 66.3126C82.0256 65.7224 86.0895 66.739 89.334 69.1397C91.1369 66.7192 92.1809 63.8181 92.334 60.8038C92.4871 57.7895 91.7423 54.7976 90.1939 52.2068C88.6456 49.6161 86.3633 47.5431 83.636 46.2502C80.9087 44.9574 77.8592 44.5029 74.8735 44.9442C71.8878 45.3856 69.1001 46.703 66.8636 48.7296C64.627 50.7562 63.0421 53.4009 62.3095 56.3289C61.577 59.2568 61.7297 62.3362 62.7483 65.1773C63.767 68.0184 65.6057 70.4933 68.0318 72.2887H68.0332Z" fill="white"/>
<path id="Path 20" d="M32.4488 75.2321C34.8599 71.9953 38.4558 69.8463 42.4485 69.256C46.4413 68.6657 50.5052 69.6823 53.7497 72.0831C55.5525 69.6625 56.5966 66.7614 56.7497 63.7471C56.9027 60.7329 56.1579 57.7409 54.6096 55.1502C53.0612 52.5595 50.7789 50.4864 48.0517 49.1936C45.3244 47.9007 42.2749 47.4462 39.2891 47.8876C36.3034 48.329 33.5158 49.6463 31.2792 51.673C29.0427 53.6996 27.4578 56.3443 26.7252 59.2722C25.9926 62.2001 26.1453 65.2796 27.164 68.1207C28.1826 70.9617 30.0214 73.4367 32.4475 75.2321H32.4488Z" fill="white"/>
<path id="Ellipse 10" d="M42.5398 65.6129C45.6428 65.6129 48.1583 63.0974 48.1583 59.9944C48.1583 56.8914 45.6428 54.376 42.5398 54.376C39.4368 54.376 36.9214 56.8914 36.9214 59.9944C36.9214 63.0974 39.4368 65.6129 42.5398 65.6129Z" fill="#3E3F66"/>
<path id="Ellipse 11" d="M78.9258 61.3316C82.0288 61.3316 84.5443 58.8162 84.5443 55.7132C84.5443 52.6102 82.0288 50.0947 78.9258 50.0947C75.8228 50.0947 73.3074 52.6102 73.3074 55.7132C73.3074 58.8162 75.8228 61.3316 78.9258 61.3316Z" fill="#3E3F66"/>
<path id="Ellipse 12" d="M60.1985 75.2444C61.8239 75.2444 63.1415 73.9268 63.1415 72.3014C63.1415 70.676 61.8239 69.3584 60.1985 69.3584C58.5731 69.3584 57.2555 70.676 57.2555 72.3014C57.2555 73.9268 58.5731 75.2444 60.1985 75.2444Z" fill="#F885D9"/>
<path id="Path 21" d="M37.6863 28.6085C35.7466 25.4857 34.4439 21.8174 34.8474 18.1632C35.2508 14.5091 37.6445 10.9438 41.1684 9.89609C44.6922 8.84839 49.0575 11.0184 49.7215 14.634C53.251 8.53159 58.834 3.88179 65.4743 1.51444C68.554 0.429282 72.6469 0.18314 74.428 2.92013C75.3092 4.27471 75.4037 6.11649 76.5844 7.22011C78.4352 8.95032 81.4031 7.73165 83.9325 7.87961C87.4892 8.08749 90.3536 11.4069 90.8007 14.9428C91.2477 18.4787 89.6831 22.0295 87.3726 24.7414C85.0621 27.4532 82.0554 29.4649 79.091 31.4407" fill="#3E3F66"/>
</g>
</svg>
