<svg xmlns="http://www.w3.org/2000/svg" width="957" height="990" viewBox="0 0 957 990" version="1.1"><path d="M 799 1 C 797.625 1.440, 793.746 1.845, 790.381 1.900 C 775.410 2.144, 755.299 7.610, 739.219 15.805 C 717.586 26.829, 694.977 46.899, 683 65.708 L 676.500 75.916 641.500 76.109 C 622.250 76.215, 489.725 76.200, 347 76.076 C 162.824 75.915, 85.904 76.166, 82 76.940 C 74.231 78.480, 67 82.415, 60.989 88.373 C 54.534 94.771, 51.511 99.844, 49.518 107.623 C 47.516 115.438, 47.428 134.589, 47.750 491.656 C 47.994 762.259, 48.044 768.801, 49.878 768.322 C 50.911 768.052, 52.233 766.784, 52.816 765.505 C 53.554 763.884, 53.903 664.866, 53.966 438.674 C 54.067 80.412, 53.531 109.239, 60.288 98.601 C 63.690 93.245, 73.021 85.787, 78.824 83.785 C 81.754 82.774, 142.454 82.462, 377.750 82.247 C 549.064 82.090, 673 82.349, 673 82.864 C 673 83.352, 671.929 86.172, 670.621 89.131 C 663.367 105.533, 659.855 123.782, 659.896 144.866 C 659.928 161.980, 661.658 173.212, 666.483 187.644 C 675.857 215.687, 693.016 240.016, 715.523 257.175 C 740.630 276.318, 768.074 285.465, 804 286.667 C 831.800 287.596, 850.867 283.948, 872.686 273.524 C 895.412 262.667, 914.414 247.770, 926.166 231.600 L 929 227.700 929.129 237.100 C 929.199 242.270, 929.163 392.525, 929.049 571 C 928.821 926.455, 929.243 902.746, 922.947 913.769 C 919.534 919.745, 914.337 923.905, 906.145 927.218 L 900.500 929.500 534.156 929.759 C 151.381 930.029, 165.346 929.868, 163.795 934.044 C 163.278 935.433, 199.885 935.613, 530.361 935.840 C 864.125 936.070, 898.045 935.948, 903.500 934.495 C 920.129 930.064, 932.261 916.381, 934.971 899 C 935.641 894.705, 935.987 778.159, 935.992 555.373 L 936 218.246 941.448 206.873 C 950.417 188.148, 954.509 173.223, 955.943 154 C 959.832 101.896, 934.297 51.543, 889.409 22.802 C 869.030 9.753, 835.559 -0.113, 812.385 0.100 C 806.398 0.155, 800.375 0.560, 799 1 M 788 5.496 C 754.168 8.849, 728.265 21.540, 702.433 47.416 C 693.033 56.832, 680 74.412, 680 77.676 C 680 78.404, 679.629 79, 679.175 79 C 677.979 79, 669.366 101.180, 667.085 110.135 C 662.581 127.819, 661.918 152.575, 665.462 170.727 C 674.851 218.811, 710.889 259.885, 757.383 275.493 C 787.211 285.506, 823.305 286.402, 852.402 277.853 C 879.752 269.817, 907.292 250.900, 923.960 228.701 C 926.355 225.512, 929.138 222.461, 930.145 221.922 C 931.152 221.383, 932.284 219.718, 932.659 218.221 C 933.034 216.725, 935.471 211.225, 938.074 206 C 943.690 194.726, 948.232 181.512, 950.678 169.339 C 953.174 156.914, 953.176 129.739, 950.681 118 C 944.475 88.793, 932.520 66.507, 912.022 45.938 C 890.327 24.167, 868.727 12.776, 837.169 6.466 C 823.152 3.663, 809.258 3.389, 788 5.496 M 765.273 36.451 C 741.898 44.939, 722.888 59.443, 709.283 79.168 C 694.139 101.124, 688.167 121.963, 689.306 148.886 C 690.098 167.636, 694.124 182.236, 703.124 199 C 719.748 229.965, 749.559 250.412, 786.423 256.134 C 796.901 257.760, 820.722 256.659, 830.037 254.118 C 858.040 246.479, 882.897 228.226, 898.823 203.606 C 916.135 176.845, 920.389 139.014, 909.639 107.410 C 906.796 99.050, 904.380 94.140, 897.751 83.250 C 891.966 73.745, 892.603 73.954, 878.492 76.933 C 866.787 79.405, 858.490 82.289, 847.946 87.553 C 838.563 92.237, 837.837 92.877, 836.113 97.990 C 835.466 99.910, 833.326 103.130, 831.357 105.146 C 827.901 108.685, 827.849 108.849, 829.824 109.906 C 832.802 111.499, 833.387 111.308, 835.264 108.130 C 840.106 99.934, 853.709 102.566, 858.127 112.554 C 861.412 119.982, 858.152 125.513, 849.838 126.616 C 847.177 126.969, 845.005 127.537, 845.011 127.879 C 845.017 128.220, 845.692 130.709, 846.511 133.409 C 848.418 139.697, 848.420 151.224, 846.514 157.643 C 843.042 169.332, 832.951 180.194, 821 185.105 C 816.677 186.882, 813.467 187.380, 806 187.433 C 794.139 187.517, 788.211 185.603, 779.393 178.845 L 772.945 173.903 770.223 175.860 C 768.725 176.936, 766.150 179.257, 764.500 181.017 C 757.123 188.886, 734.962 201.194, 722.356 204.425 C 711.983 207.084, 712.075 207.126, 706.800 197.250 C 698.592 181.883, 693 160.242, 693 143.845 C 693 121.777, 700.719 97.806, 714.021 78.563 C 720.356 69.400, 732.239 57.858, 742.265 51.130 C 752.596 44.197, 766.973 37.290, 774.168 35.804 C 777.376 35.142, 780 34.240, 780 33.800 C 780 32.161, 774.224 33.200, 765.273 36.451 M 759.770 109.966 C 758.395 111.047, 756.708 113.290, 756.021 114.949 C 754.636 118.292, 755.328 124.198, 757.296 125.831 C 758.259 126.630, 758.457 125.997, 758.173 123.022 C 757.865 119.790, 758.338 118.603, 761.154 115.535 C 764.674 111.698, 768.737 110.685, 774 112.331 L 776.500 113.113 773.694 110.556 C 770.133 107.312, 763.502 107.031, 759.770 109.966 M 818.270 122.428 C 813.172 124.730, 810.818 129.386, 811.261 136.289 C 811.535 140.554, 812.203 142.647, 813.797 144.241 L 815.961 146.405 818.750 144.343 C 822.976 141.219, 825.084 140.876, 830.858 142.373 L 836.146 143.745 837.161 141.123 C 837.719 139.680, 837.973 136.319, 837.725 133.654 C 836.847 124.205, 826.964 118.502, 818.270 122.428 M 784.304 125.956 C 780.511 128.269, 778.259 131.455, 777.407 135.713 C 776.659 139.457, 778.372 145.122, 780.962 147.466 C 782.751 149.085, 783.089 149.032, 787.503 146.445 C 791.966 143.830, 792.386 143.768, 797.657 144.948 C 800.681 145.624, 803.430 145.904, 803.765 145.568 C 804.101 145.232, 804.570 142.271, 804.807 138.986 C 805.130 134.527, 804.815 132.367, 803.565 130.459 C 801.108 126.708, 796.057 124.007, 791.500 124.007 C 789.295 124.007, 786.066 124.882, 784.304 125.956 M 612.500 264.649 C 593.702 268.563, 577.788 279.189, 568.539 294 C 564.406 300.619, 564.532 301.401, 569.262 298.502 C 576.247 294.222, 585.040 289.897, 589.914 288.345 C 597.430 285.951, 614.357 285.456, 622 287.408 C 636.235 291.043, 649.459 299.516, 657.415 310.099 C 670.271 327.201, 673.840 343.350, 669.495 364.754 C 668.467 369.817, 667.976 374.306, 668.403 374.730 C 670.405 376.716, 681.220 359.126, 684.663 348.282 C 696.151 312.108, 675.576 275.483, 638.432 265.983 C 631.267 264.150, 618.137 263.475, 612.500 264.649 M 242.363 286.092 C 228.320 288.440, 215.886 295.211, 205.594 306.118 C 197.434 314.765, 192.964 322.910, 189.983 334.568 C 184.872 354.549, 190.293 378.598, 202.970 392.189 C 208.783 398.421, 208.863 398.183, 205.891 383.420 C 204.051 374.273, 203.915 371.825, 204.824 364.139 C 206.661 348.598, 211.996 337.185, 222.284 326.781 C 232.914 316.032, 244.842 310.075, 259.857 308.020 C 274.471 306.019, 291.164 309.841, 302.952 317.887 C 306.266 320.149, 309.428 322, 309.979 322 C 312.037 322, 304.350 311.238, 297.056 303.906 C 282.594 289.370, 262.300 282.760, 242.363 286.092 M 356.500 389.564 C 355.400 389.815, 352.025 390.501, 349 391.089 C 341.027 392.640, 326.416 400.098, 319.802 405.995 C 303.689 420.359, 295.632 443.385, 299.333 464.489 C 300.720 472.395, 305.401 484.149, 309.801 490.773 C 310.445 491.742, 312.727 490.984, 319.377 487.591 C 338.760 477.700, 358.027 477.494, 377.780 486.966 C 383.898 489.900, 387.936 492.772, 393.245 497.967 C 398.288 502.901, 400.952 504.833, 402.178 504.444 C 405.668 503.336, 415.783 490.931, 419.880 482.734 C 425.103 472.285, 427 464.720, 427 454.339 C 427 443.030, 425.592 437.084, 420.305 426.067 C 412.341 409.473, 396.321 396.058, 379 391.480 C 373.160 389.937, 359.842 388.802, 356.500 389.564 M 498.225 403.522 C 486.711 406.022, 477.462 411.320, 467.900 420.891 C 461.062 427.737, 458.443 431.241, 455.112 438 C 448.086 452.258, 446.490 467.809, 450.493 483 C 451.934 488.471, 458.702 502.698, 460.346 503.714 C 460.820 504.007, 465.548 502.165, 470.854 499.621 C 486.217 492.256, 497.335 490.606, 511.660 493.565 C 525.071 496.335, 534.781 501.682, 545.706 512.315 L 551.912 518.355 558.706 511.401 C 569.508 500.346, 575.493 486.086, 576.655 468.637 C 577.370 457.911, 575.235 448.077, 569.802 437.070 C 557.065 411.264, 527.145 397.241, 498.225 403.522 M 350.734 413.088 C 345.947 414.216, 339.991 417.244, 337.805 419.662 C 331.578 426.548, 330.271 438.462, 334.793 447.119 C 338.943 455.062, 344.182 458.372, 353.313 458.819 C 359.674 459.130, 361.132 458.840, 366 456.292 C 373.838 452.189, 378 445.190, 378 436.110 C 378 424.796, 372.050 416.598, 361.568 413.471 C 356.096 411.839, 356.045 411.837, 350.734 413.088 M 500.748 431.366 C 490.840 435.063, 485.465 443.082, 485.577 454 C 485.749 470.784, 499.812 480.722, 516.384 475.770 C 524.261 473.417, 532 462.629, 532 454.003 C 532 445.689, 526.221 436.234, 518.791 432.392 C 514.488 430.167, 505.354 429.647, 500.748 431.366 M 430.333 494.061 C 417.336 497.972, 420.404 518, 434 518 C 441.563 518, 446.606 512.068, 445.721 504.213 C 444.832 496.329, 437.929 491.775, 430.333 494.061 M 643.028 527.426 C 642.463 528.913, 642 530.671, 642 531.331 C 642 535.293, 634.305 561.971, 630.053 572.751 C 615.741 609.034, 589.727 640.513, 554.669 663.971 C 528.074 681.767, 498.635 690.888, 457.500 694.078 C 449.250 694.717, 442.287 695.437, 442.027 695.677 C 441.360 696.292, 447.962 715.501, 449.688 717.964 C 451.369 720.365, 455.065 720.545, 469.789 718.945 C 554.778 709.707, 625.462 644.231, 641.455 559.926 C 643.104 551.232, 645.362 526.029, 644.564 525.230 C 644.284 524.951, 643.593 525.939, 643.028 527.426 M 679.401 610.654 C 665.486 618.022, 650.679 628.869, 647.750 633.839 C 643.500 641.052, 646.861 647.565, 655.478 648.816 L 660.186 649.500 658.058 652.203 C 656.887 653.689, 655.004 656.997, 653.873 659.555 C 651.398 665.148, 651.930 669.575, 655.600 673.937 C 659.805 678.934, 664.264 678.833, 677.424 673.441 C 679.040 672.779, 679.224 672.960, 678.575 674.576 C 678.150 675.634, 677.573 678.116, 677.291 680.091 C 676.857 683.135, 677.197 684.010, 679.525 685.841 C 685.495 690.537, 692.343 687.709, 699.672 677.520 C 702.252 673.934, 704.619 670.990, 704.931 670.978 C 706.499 670.916, 710.156 667.215, 709.221 666.636 C 707.753 665.729, 702.768 670.154, 697.408 677.120 C 690.322 686.328, 683.297 688.607, 680.032 682.756 C 678.610 680.210, 678.662 679.707, 680.756 675.756 C 681.997 673.415, 682.989 671.050, 682.961 670.500 C 682.887 669.076, 679.800 669.756, 673.308 672.627 C 662.944 677.211, 655.902 675.326, 654.449 667.580 C 653.667 663.411, 655.248 659.617, 660.628 652.750 L 665.133 647 659.501 647 C 651.370 647, 648.045 644.953, 648.015 639.928 C 647.980 634.031, 657.368 625.709, 676.247 614.904 C 682.161 611.518, 687 608.355, 687 607.874 C 687 606.629, 687.008 606.626, 679.401 610.654 M 125.387 739.956 C 118.720 740.989, 110.846 743.600, 104 747.049 C 85.986 756.122, 63.971 777.239, 50.735 798.142 C 48.770 801.246, 45.170 805.778, 42.734 808.214 C 38.997 811.950, 38.196 813.462, 37.609 817.889 C 37.226 820.775, 34.984 828.168, 32.626 834.318 C 28.220 845.810, 24.544 857.877, 25.238 858.571 C 25.756 859.090, 43.096 856.270, 46.005 855.194 C 47.770 854.541, 49.013 852.192, 51.554 844.706 L 54.829 835.059 51.165 834.398 C 45.732 833.418, 44.280 832.379, 43.024 828.573 C 39.731 818.595, 50.133 808.113, 60.967 810.493 C 63.070 810.955, 64.929 812.447, 66.660 815.063 C 68.874 818.408, 69.505 818.800, 71.210 817.887 C 72.886 816.991, 73.069 816.265, 72.399 813.164 C 69.932 801.744, 74.353 795.535, 82.173 799.437 L 85.441 801.067 90.470 795.887 C 98.571 787.545, 105.119 785.810, 109.178 790.929 C 111.222 793.509, 112.347 793.941, 118.586 794.542 L 125.671 795.226 131.875 789.690 C 135.288 786.645, 144.065 780.071, 151.381 775.081 C 158.697 770.091, 165.482 765.124, 166.460 764.044 C 169.275 760.933, 167.630 757.418, 159.402 748.963 L 151.933 741.288 144.717 740.650 C 140.747 740.299, 135.925 739.821, 134 739.588 C 132.075 739.354, 128.199 739.520, 125.387 739.956 M 133.500 807.759 L 130.500 809.438 136.219 810.084 C 143.132 810.864, 146.692 813.019, 148.597 817.578 C 149.383 819.460, 150.246 821, 150.513 821 C 150.781 821, 151 819.155, 151 816.900 C 151 811.143, 145.939 805.982, 140.350 806.040 C 138.233 806.062, 135.150 806.836, 133.500 807.759 M 109.604 831.041 C 99.588 834.030, 96.001 847.955, 103.446 854.949 C 105.905 857.259, 105.948 857.263, 108.595 855.389 C 114.190 851.430, 115.326 851.106, 121.581 851.690 L 127.757 852.267 128.957 848.630 C 131.751 840.165, 126.052 832.288, 116 830.722 C 114.075 830.422, 111.197 830.565, 109.604 831.041 M 71.898 837.263 C 64.941 841.897, 63.294 851.021, 68.014 858.783 C 70.380 862.673, 70.983 862.727, 74.932 859.404 C 78.520 856.385, 84.064 855.372, 89.215 856.794 C 92.667 857.747, 92.901 857.654, 94.050 854.879 C 95.513 851.348, 94.780 844.840, 92.536 841.414 C 88.320 834.981, 78.339 832.973, 71.898 837.263" stroke="none" fill="#fa4b5c" fill-rule="evenodd"/><path d="M 788 5.496 C 754.168 8.849, 728.265 21.540, 702.433 47.416 C 693.033 56.832, 680 74.412, 680 77.676 C 680 78.404, 679.629 79, 679.175 79 C 677.979 79, 669.366 101.180, 667.085 110.135 C 662.581 127.819, 661.918 152.575, 665.462 170.727 C 674.851 218.811, 710.889 259.885, 757.383 275.493 C 787.211 285.506, 823.305 286.402, 852.402 277.853 C 879.752 269.817, 907.292 250.900, 923.960 228.701 C 926.355 225.512, 929.138 222.461, 930.145 221.922 C 931.152 221.383, 932.284 219.718, 932.659 218.221 C 933.034 216.725, 935.471 211.225, 938.074 206 C 943.690 194.726, 948.232 181.512, 950.678 169.339 C 953.174 156.914, 953.176 129.739, 950.681 118 C 944.475 88.793, 932.520 66.507, 912.022 45.938 C 890.327 24.167, 868.727 12.776, 837.169 6.466 C 823.152 3.663, 809.258 3.389, 788 5.496 M 765.273 36.451 C 741.898 44.939, 722.888 59.443, 709.283 79.168 C 694.139 101.124, 688.167 121.963, 689.306 148.886 C 690.098 167.636, 694.124 182.236, 703.124 199 C 719.748 229.965, 749.559 250.412, 786.423 256.134 C 796.901 257.760, 820.722 256.659, 830.037 254.118 C 858.040 246.479, 882.897 228.226, 898.823 203.606 C 916.135 176.845, 920.389 139.014, 909.639 107.410 C 906.796 99.050, 904.380 94.140, 897.751 83.250 C 891.966 73.745, 892.603 73.954, 878.492 76.933 C 866.787 79.405, 858.490 82.289, 847.946 87.553 C 838.563 92.237, 837.837 92.877, 836.113 97.990 C 835.466 99.910, 833.326 103.130, 831.357 105.146 C 827.901 108.685, 827.849 108.849, 829.824 109.906 C 832.802 111.499, 833.387 111.308, 835.264 108.130 C 840.106 99.934, 853.709 102.566, 858.127 112.554 C 861.412 119.982, 858.152 125.513, 849.838 126.616 C 847.177 126.969, 845.005 127.537, 845.011 127.879 C 845.017 128.220, 845.692 130.709, 846.511 133.409 C 848.418 139.697, 848.420 151.224, 846.514 157.643 C 843.042 169.332, 832.951 180.194, 821 185.105 C 816.677 186.882, 813.467 187.380, 806 187.433 C 794.139 187.517, 788.211 185.603, 779.393 178.845 L 772.945 173.903 770.223 175.860 C 768.725 176.936, 766.150 179.257, 764.500 181.017 C 757.123 188.886, 734.962 201.194, 722.356 204.425 C 711.983 207.084, 712.075 207.126, 706.800 197.250 C 698.592 181.883, 693 160.242, 693 143.845 C 693 121.777, 700.719 97.806, 714.021 78.563 C 720.356 69.400, 732.239 57.858, 742.265 51.130 C 752.596 44.197, 766.973 37.290, 774.168 35.804 C 777.376 35.142, 780 34.240, 780 33.800 C 780 32.161, 774.224 33.200, 765.273 36.451 M 759.770 109.966 C 758.395 111.047, 756.708 113.290, 756.021 114.949 C 754.636 118.292, 755.328 124.198, 757.296 125.831 C 758.259 126.630, 758.457 125.997, 758.173 123.022 C 757.865 119.790, 758.338 118.603, 761.154 115.535 C 764.674 111.698, 768.737 110.685, 774 112.331 L 776.500 113.113 773.694 110.556 C 770.133 107.312, 763.502 107.031, 759.770 109.966 M 818.270 122.428 C 813.172 124.730, 810.818 129.386, 811.261 136.289 C 811.535 140.554, 812.203 142.647, 813.797 144.241 L 815.961 146.405 818.750 144.343 C 822.976 141.219, 825.084 140.876, 830.858 142.373 L 836.146 143.745 837.161 141.123 C 837.719 139.680, 837.973 136.319, 837.725 133.654 C 836.847 124.205, 826.964 118.502, 818.270 122.428 M 784.304 125.956 C 780.511 128.269, 778.259 131.455, 777.407 135.713 C 776.659 139.457, 778.372 145.122, 780.962 147.466 C 782.751 149.085, 783.089 149.032, 787.503 146.445 C 791.966 143.830, 792.386 143.768, 797.657 144.948 C 800.681 145.624, 803.430 145.904, 803.765 145.568 C 804.101 145.232, 804.570 142.271, 804.807 138.986 C 805.130 134.527, 804.815 132.367, 803.565 130.459 C 801.108 126.708, 796.057 124.007, 791.500 124.007 C 789.295 124.007, 786.066 124.882, 784.304 125.956 M 382.377 205.916 C 377.179 208.277, 373.649 212.683, 369.971 221.400 C 364.664 233.978, 363.633 234.499, 344 234.499 C 329.076 234.500, 328.290 234.603, 322.839 237.280 C 316.022 240.628, 310.673 246.299, 307.183 253.880 C 302.030 265.073, 304.364 281.795, 313.179 296.835 C 317.322 303.904, 332.345 319.057, 341.096 324.994 L 347.692 329.468 333.368 340.234 C 325.489 346.155, 318.808 351, 318.522 351 C 318.235 351, 318 349.672, 318 348.049 C 318 341.123, 312.041 322, 309.882 322 C 309.385 322, 306.266 320.149, 302.952 317.887 C 291.164 309.841, 274.471 306.019, 259.857 308.020 C 244.842 310.075, 232.914 316.032, 222.284 326.781 C 211.996 337.185, 206.661 348.598, 204.824 364.139 C 203.915 371.825, 204.051 374.273, 205.891 383.420 C 207.051 389.182, 208 394.781, 208 395.863 C 208 401.157, 226.798 412.484, 240.725 415.582 C 247.153 417.012, 249.680 417.091, 258.157 416.127 C 272.144 414.537, 271.251 414.183, 268.572 420.250 C 257.085 446.270, 250.728 484.608, 252.982 514.272 C 256.667 562.772, 273.728 599.966, 308.995 636.380 C 326.681 654.642, 342.480 666.149, 363.500 676.079 C 383.885 685.709, 401.917 690.763, 426 693.597 C 438.657 695.086, 442.571 695.149, 456.795 694.096 C 490.794 691.577, 512.635 686.186, 536.169 674.506 C 555.804 664.762, 573.271 651.688, 590.536 633.813 C 617.064 606.348, 632.366 576.324, 641.533 533.746 C 645.235 516.553, 645.787 528.621, 642.421 553.154 C 633.931 615.032, 591.402 672.576, 533.500 700.531 C 508.987 712.367, 486.778 717.886, 454.135 720.256 L 450.770 720.500 455.181 729.059 C 463.722 745.629, 481.261 767.477, 494.766 778.372 C 511.165 791.600, 532.551 803.984, 546.112 808.103 L 553 810.195 553 833.476 L 553 856.757 550.038 857.984 C 543.428 860.722, 537.375 869.318, 535.526 878.593 L 534.910 881.687 547.705 882.339 C 554.742 882.698, 567.188 882.994, 575.361 882.996 L 590.223 883 589.525 879.250 C 587.773 869.835, 581.186 860.542, 574.448 857.980 L 572 857.050 572 835.908 L 572 814.767 574.750 815.443 C 576.263 815.815, 586.837 816.374, 598.250 816.684 L 619 817.248 619.004 824.374 C 619.006 828.293, 619.276 837.125, 619.604 844 L 620.200 856.500 615.189 859.200 C 607.594 863.292, 602 872.168, 602 880.126 L 602 883 629 883 L 656 883 655.994 880.750 C 655.975 872.913, 650.094 863.155, 643.048 859.269 L 638.029 856.500 638.014 834.950 L 638 813.400 644.250 812.120 C 652.880 810.352, 668.441 804.094, 681.234 797.246 C 720.844 776.043, 749.486 739.904, 761.998 695.343 C 774.819 649.683, 766.273 598.327, 739.118 557.849 C 718.902 527.714, 690.802 506.214, 656.385 494.550 L 645.271 490.783 644.123 479.641 C 641.592 455.084, 635.642 434.841, 623.956 411.034 L 616.086 395 623.833 395 C 636.855 395, 648.694 390.962, 660.619 382.452 C 664.349 379.790, 667.163 376.997, 667.415 375.705 C 667.651 374.492, 668.620 369.675, 669.567 365 C 672.820 348.934, 671.294 334.468, 665.037 322.073 C 656.135 304.439, 641.021 292.265, 622 287.408 C 614.258 285.431, 597.410 285.960, 589.654 288.423 C 584.131 290.177, 570.437 297.273, 566.535 300.403 C 562.495 303.643, 558.868 314.737, 558.248 325.751 L 557.727 335.003 552.114 331.864 C 549.026 330.137, 542.837 326.797, 538.360 324.440 L 530.221 320.156 534.065 311.828 C 539.176 300.756, 541 293.275, 541 283.379 C 541 265.503, 532.136 250.084, 518.176 243.675 C 511.030 240.395, 500.227 240.676, 492.745 244.336 C 486.873 247.209, 480.359 253.721, 479.355 257.723 C 479.040 258.975, 478.420 260, 477.977 260 C 477.533 260, 475.472 257.637, 473.396 254.750 C 465.409 243.640, 459.760 237.238, 452.761 231.361 C 438.153 219.096, 420.216 208.915, 407.356 205.589 C 398.878 203.397, 387.600 203.544, 382.377 205.916 M 356.500 389.564 C 355.400 389.815, 352.025 390.501, 349 391.089 C 341.027 392.640, 326.416 400.098, 319.802 405.995 C 303.689 420.359, 295.632 443.385, 299.333 464.489 C 300.720 472.395, 305.401 484.149, 309.801 490.773 C 310.445 491.742, 312.727 490.984, 319.377 487.591 C 338.760 477.700, 358.027 477.494, 377.780 486.966 C 383.898 489.900, 387.936 492.772, 393.245 497.967 C 398.288 502.901, 400.952 504.833, 402.178 504.444 C 405.668 503.336, 415.783 490.931, 419.880 482.734 C 425.103 472.285, 427 464.720, 427 454.339 C 427 443.030, 425.592 437.084, 420.305 426.067 C 412.341 409.473, 396.321 396.058, 379 391.480 C 373.160 389.937, 359.842 388.802, 356.500 389.564 M 498.225 403.522 C 486.711 406.022, 477.462 411.320, 467.900 420.891 C 461.062 427.737, 458.443 431.241, 455.112 438 C 448.086 452.258, 446.490 467.809, 450.493 483 C 451.934 488.471, 458.702 502.698, 460.346 503.714 C 460.820 504.007, 465.548 502.165, 470.854 499.621 C 486.217 492.256, 497.335 490.606, 511.660 493.565 C 525.071 496.335, 534.781 501.682, 545.706 512.315 L 551.912 518.355 558.706 511.401 C 569.508 500.346, 575.493 486.086, 576.655 468.637 C 577.370 457.911, 575.235 448.077, 569.802 437.070 C 557.065 411.264, 527.145 397.241, 498.225 403.522 M 350.734 413.088 C 345.947 414.216, 339.991 417.244, 337.805 419.662 C 331.578 426.548, 330.271 438.462, 334.793 447.119 C 338.943 455.062, 344.182 458.372, 353.313 458.819 C 359.674 459.130, 361.132 458.840, 366 456.292 C 373.838 452.189, 378 445.190, 378 436.110 C 378 424.796, 372.050 416.598, 361.568 413.471 C 356.096 411.839, 356.045 411.837, 350.734 413.088 M 500.748 431.366 C 490.840 435.063, 485.465 443.082, 485.577 454 C 485.749 470.784, 499.812 480.722, 516.384 475.770 C 524.261 473.417, 532 462.629, 532 454.003 C 532 445.689, 526.221 436.234, 518.791 432.392 C 514.488 430.167, 505.354 429.647, 500.748 431.366 M 430.333 494.061 C 417.336 497.972, 420.404 518, 434 518 C 441.563 518, 446.606 512.068, 445.721 504.213 C 444.832 496.329, 437.929 491.775, 430.333 494.061 M 679.401 610.654 C 665.486 618.022, 650.679 628.869, 647.750 633.839 C 643.500 641.052, 646.861 647.565, 655.478 648.816 L 660.186 649.500 658.058 652.203 C 656.887 653.689, 655.004 656.997, 653.873 659.555 C 651.398 665.148, 651.930 669.575, 655.600 673.937 C 659.805 678.934, 664.264 678.833, 677.424 673.441 C 679.040 672.779, 679.224 672.960, 678.575 674.576 C 678.150 675.634, 677.573 678.116, 677.291 680.091 C 676.857 683.135, 677.197 684.010, 679.525 685.841 C 685.495 690.537, 692.343 687.709, 699.672 677.520 C 702.252 673.934, 704.619 670.990, 704.931 670.978 C 706.499 670.916, 710.156 667.215, 709.221 666.636 C 707.753 665.729, 702.768 670.154, 697.408 677.120 C 690.322 686.328, 683.297 688.607, 680.032 682.756 C 678.610 680.210, 678.662 679.707, 680.756 675.756 C 681.997 673.415, 682.989 671.050, 682.961 670.500 C 682.887 669.076, 679.800 669.756, 673.308 672.627 C 662.944 677.211, 655.902 675.326, 654.449 667.580 C 653.667 663.411, 655.248 659.617, 660.628 652.750 L 665.133 647 659.501 647 C 651.370 647, 648.045 644.953, 648.015 639.928 C 647.980 634.031, 657.368 625.709, 676.247 614.904 C 682.161 611.518, 687 608.355, 687 607.874 C 687 606.629, 687.008 606.626, 679.401 610.654 M 119.500 720.419 C 107.445 723.192, 94.448 728.968, 82.506 736.857 C 74.018 742.465, 54.698 760.902, 52.991 765.023 C 52.312 766.660, 51.176 768, 50.465 768 C 47.183 768, 33.035 788.988, 23.495 808.009 C 10.605 833.713, 3.607 856.739, 1.053 881.856 C -1.764 909.563, 1.577 930.947, 11.909 951.330 C 16.896 961.169, 18.321 963.093, 24.396 968.195 C 33.058 975.471, 55.091 986.488, 65.334 988.667 C 83.206 992.467, 106.655 985.487, 128.410 969.889 C 138.938 962.341, 161.125 940.529, 163.079 935.806 C 163.831 933.988, 165.687 931.455, 167.203 930.179 C 170.011 927.813, 179.590 912.531, 186.747 899 C 194.930 883.529, 202.120 862.824, 205.883 843.891 C 212.925 808.467, 210.932 784.157, 198.951 759.330 C 191.232 743.337, 180.567 733.137, 165.669 727.501 C 162.276 726.217, 156.575 723.930, 153 722.419 C 147.577 720.126, 144.760 719.618, 136 719.355 C 129.502 719.159, 123.213 719.565, 119.500 720.419 M 125.387 739.956 C 118.720 740.989, 110.846 743.600, 104 747.049 C 85.986 756.122, 63.971 777.239, 50.735 798.142 C 48.770 801.246, 45.170 805.778, 42.734 808.214 C 38.997 811.950, 38.196 813.462, 37.609 817.889 C 37.226 820.775, 34.984 828.168, 32.626 834.318 C 28.220 845.810, 24.544 857.877, 25.238 858.571 C 25.756 859.090, 43.096 856.270, 46.005 855.194 C 47.770 854.541, 49.013 852.192, 51.554 844.706 L 54.829 835.059 51.165 834.398 C 45.732 833.418, 44.280 832.379, 43.024 828.573 C 39.731 818.595, 50.133 808.113, 60.967 810.493 C 63.070 810.955, 64.929 812.447, 66.660 815.063 C 68.874 818.408, 69.505 818.800, 71.210 817.887 C 72.886 816.991, 73.069 816.265, 72.399 813.164 C 69.932 801.744, 74.353 795.535, 82.173 799.437 L 85.441 801.067 90.470 795.887 C 98.571 787.545, 105.119 785.810, 109.178 790.929 C 111.222 793.509, 112.347 793.941, 118.586 794.542 L 125.671 795.226 131.875 789.690 C 135.288 786.645, 144.065 780.071, 151.381 775.081 C 158.697 770.091, 165.482 765.124, 166.460 764.044 C 169.275 760.933, 167.630 757.418, 159.402 748.963 L 151.933 741.288 144.717 740.650 C 140.747 740.299, 135.925 739.821, 134 739.588 C 132.075 739.354, 128.199 739.520, 125.387 739.956 M 133.500 807.759 L 130.500 809.438 136.219 810.084 C 143.132 810.864, 146.692 813.019, 148.597 817.578 C 149.383 819.460, 150.246 821, 150.513 821 C 150.781 821, 151 819.155, 151 816.900 C 151 811.143, 145.939 805.982, 140.350 806.040 C 138.233 806.062, 135.150 806.836, 133.500 807.759 M 109.604 831.041 C 99.588 834.030, 96.001 847.955, 103.446 854.949 C 105.905 857.259, 105.948 857.263, 108.595 855.389 C 114.190 851.430, 115.326 851.106, 121.581 851.690 L 127.757 852.267 128.957 848.630 C 131.751 840.165, 126.052 832.288, 116 830.722 C 114.075 830.422, 111.197 830.565, 109.604 831.041 M 71.898 837.263 C 64.941 841.897, 63.294 851.021, 68.014 858.783 C 70.380 862.673, 70.983 862.727, 74.932 859.404 C 78.520 856.385, 84.064 855.372, 89.215 856.794 C 92.667 857.747, 92.901 857.654, 94.050 854.879 C 95.513 851.348, 94.780 844.840, 92.536 841.414 C 88.320 834.981, 78.339 832.973, 71.898 837.263" stroke="none" fill="#402274" fill-rule="evenodd"/></svg>